{"title":"The Unborn - AVM","uid":5045758,"size":191446792,"categoryP":"video","categoryS":"handheld","magnet":"?xt=urn:btih:d489cda1443fb9995affe919d33dbddc4ee1b0f4&amp;dn=The+Unborn+-+AVM&amp;tr=udp%3A%2F%2Ftracker.openbittorrent.com%3A80&amp;tr=udp%3A%2F%2Fopen.demonii.com%3A1337&amp;tr=udp%3A%2F%2Ftracker.coppersurfer.tk%3A6969&amp;tr=udp%3A%2F%2Fexodus.desync.com%3A6969","seeders":0,"leechers":0,"uploader":"AVIDM","files":1,"time":1249621001,"description":"AVIDMobile - http://www.avidmobile.com.ar (Mobile media)\n\nVideo\nID                               : 1\nFormat                           : MPEG-4 Visual\nFormat profile                   : Advanced Simple@L5\nFormat settings, BVOP            : Yes\nFormat settings, QPel            : No\nFormat settings, GMC             : No warppoints\nFormat settings, Matrix          : Default (H.263)\nCodec ID                         : 20\nDuration                         : 1h 25mn\nBit rate mode                    : Variable\nBit rate                         : 234 Kbps\nMaximum bit rate                 : 1 080 Kbps\nWidth                            : 320 pixels\nHeight                           : 240 pixels\nDisplay aspect ratio             : 4/3\nFrame rate mode                  : Variable\nFrame rate                       : 23.976 fps\nMinimum frame rate               : 23.974 fps\nMaximum frame rate               : 23.981 fps\nResolution                       : 24 bits\nColorimetry                      : 4:2:0\nScan type                        : Progressive\nBits/(Pixel*Frame)               : 0.127\nStream size                      : 142 MiB (78%)\n\nAudio\nID                               : 2\nFormat                           : AAC\nFormat/Info                      : Advanced Audio Codec\nFormat version                   : Version 4\nFormat profile                   : LC\nFormat settings, SBR             : No\nCodec ID                         : 40\nDuration                         : 1h 25mn\nBit rate mode                    : Variable\nBit rate                         : 62.7 Kbps\nMaximum bit rate                 : 155 Kbps\nChannel(s)                       : 2 channels\nChannel positions                : L R\nSampling rate                    : 22.05 KHz\nResolution                       : 16 bits\nStream size                      : 38.2 MiB (21%)\n","torrent":{"xt":"urn:btih:d489cda1443fb9995affe919d33dbddc4ee1b0f4","amp;dn":"The+Unborn+-+AVM","amp;tr":["udp%3A%2F%2Ftracker.openbittorrent.com%3A80","udp%3A%2F%2Fopen.demonii.com%3A1337","udp%3A%2F%2Ftracker.coppersurfer.tk%3A6969","udp%3A%2F%2Fexodus.desync.com%3A6969"],"infoHash":"d489cda1443fb9995affe919d33dbddc4ee1b0f4","infoHashBuffer":{"type":"Buffer","data":[212,137,205,161,68,63,185,153,90,255,233,25,211,61,189,220,78,225,176,244]},"announce":[],"urlList":[]}}